<svg width="68" height="68" viewBox="0 0 68 68" fill="none" xmlns="http://www.w3.org/2000/svg">
<path d="M44.5117 36.0116C47.2894 33.8262 49.317 30.8293 50.3122 27.4378C51.3074 24.0464 51.2208 20.4291 50.0644 17.0891C48.908 13.7492 46.7394 10.8528 43.8602 8.80274C40.981 6.75272 37.5344 5.65108 34 5.65108C30.4656 5.65108 27.019 6.75272 24.1398 8.80274C21.2606 10.8528 19.092 13.7492 17.9356 17.0891C16.7792 20.4291 16.6926 24.0464 17.6878 27.4378C18.683 30.8293 20.7105 33.8262 23.4883 36.0116C18.7285 37.9186 14.5755 41.0815 11.4719 45.1631C8.36824 49.2447 6.43042 54.092 5.86499 59.1883C5.82406 59.5604 5.85682 59.9369 5.9614 60.2963C6.06597 60.6557 6.24031 60.991 6.47447 61.2831C6.94738 61.8729 7.63521 62.2507 8.38666 62.3333C9.1381 62.416 9.89161 62.1967 10.4814 61.7238C11.0712 61.2509 11.449 60.5631 11.5317 59.8116C12.1538 54.273 14.7948 49.1578 18.9499 45.4432C23.1051 41.7287 28.4832 39.6752 34.0567 39.6752C39.6301 39.6752 45.0082 41.7287 49.1634 45.4432C53.3186 49.1578 55.9595 54.273 56.5817 59.8116C56.6587 60.5079 56.9909 61.1508 57.5141 61.6165C58.0374 62.0822 58.7146 62.3376 59.415 62.3333H59.7267C60.4694 62.2479 61.1482 61.8723 61.6153 61.2885C62.0823 60.7047 62.2997 59.96 62.22 59.2166C61.6519 54.1059 59.7036 49.2461 56.5841 45.1582C53.4645 41.0703 49.2913 37.9085 44.5117 36.0116ZM34 34C31.7585 34 29.5673 33.3353 27.7035 32.09C25.8398 30.8446 24.3872 29.0746 23.5294 27.0037C22.6716 24.9328 22.4471 22.6541 22.8844 20.4556C23.3217 18.2572 24.4011 16.2378 25.9861 14.6528C27.5711 13.0678 29.5905 11.9884 31.789 11.5511C33.9874 11.1138 36.2662 11.3382 38.3371 12.196C40.408 13.0538 42.178 14.5064 43.4233 16.3702C44.6686 18.2339 45.3333 20.4251 45.3333 22.6666C45.3333 25.6724 44.1393 28.5551 42.0139 30.6805C39.8885 32.8059 37.0058 34 34 34Z" fill="#998BF0"/>
</svg>
