<svg width="25" height="20" viewBox="0 0 25 20" fill="none" xmlns="http://www.w3.org/2000/svg">
<path d="M23.75 7.88915H20.625C20.4596 7.88984 20.296 7.92334 20.1437 7.98771C19.9913 8.05208 19.8533 8.14604 19.7375 8.26415L18.1875 9.87665L14.6875 5.88915C14.5706 5.76427 14.4293 5.66471 14.2723 5.59664C14.1154 5.52858 13.9461 5.49346 13.775 5.49346C13.6039 5.49346 13.4347 5.52858 13.2777 5.59664C13.1208 5.66471 12.9794 5.76427 12.8625 5.88915L10.7375 8.01415H8.75001C8.41849 8.01415 8.10055 8.14585 7.86613 8.38027C7.63171 8.61469 7.50001 8.93263 7.50001 9.26415C7.50001 9.59568 7.63171 9.91362 7.86613 10.148C8.10055 10.3825 8.41849 10.5142 8.75001 10.5142H11.25C11.4145 10.5151 11.5776 10.4836 11.7299 10.4214C11.8822 10.3592 12.0207 10.2675 12.1375 10.1517L13.75 8.47665L17.25 12.4642C17.3629 12.5929 17.5011 12.697 17.6559 12.7701C17.8107 12.8432 17.9789 12.8837 18.15 12.8892C18.3145 12.8901 18.4776 12.8586 18.6299 12.7964C18.7822 12.7342 18.9207 12.6425 19.0375 12.5267L21.1625 10.3892H23.75C24.0815 10.3892 24.3995 10.2575 24.6339 10.023C24.8683 9.78862 25 9.47068 25 9.13915C25 8.80763 24.8683 8.48969 24.6339 8.25527C24.3995 8.02085 24.0815 7.88915 23.75 7.88915ZM14.5125 14.5142L12.1375 16.8892C12.0213 17.0063 11.8831 17.0993 11.7307 17.1628C11.5784 17.2262 11.415 17.2589 11.25 17.2589C11.085 17.2589 10.9216 17.2262 10.7693 17.1628C10.617 17.0993 10.4787 17.0063 10.3625 16.8892L3.85001 10.3767C3.42141 9.94831 3.08141 9.43971 2.84944 8.87992C2.61747 8.32012 2.49807 7.72011 2.49807 7.11415C2.49807 6.5082 2.61747 5.90819 2.84944 5.34839C3.08141 4.7886 3.42141 4.28 3.85001 3.85165C4.71459 2.98987 5.88554 2.50596 7.10626 2.50596C8.32699 2.50596 9.49794 2.98987 10.3625 3.85165C10.4787 3.96881 10.617 4.06181 10.7693 4.12527C10.9216 4.18873 11.085 4.2214 11.25 4.2214C11.415 4.2214 11.5784 4.18873 11.7307 4.12527C11.8831 4.06181 12.0213 3.96881 12.1375 3.85165C13.0158 3.0163 14.1816 2.55046 15.3938 2.55046C16.6059 2.55046 17.7717 3.0163 18.65 3.85165C18.9285 4.13383 19.172 4.44861 19.375 4.78915C19.557 5.03942 19.8254 5.21328 20.1282 5.27709C20.431 5.3409 20.7467 5.29012 21.0142 5.13458C21.2817 4.97905 21.4821 4.72981 21.5764 4.43509C21.6708 4.14038 21.6525 3.82114 21.525 3.53915C21.2161 3.02609 20.8468 2.55188 20.425 2.12665C19.2388 0.926467 17.6638 0.188033 15.9825 0.0437235C14.3012 -0.100586 12.6234 0.358667 11.25 1.33915C10.1886 0.574521 8.93655 0.117999 7.63206 0.0199669C6.32758 -0.0780648 5.02137 0.186206 3.85759 0.783615C2.6938 1.38102 1.71769 2.28834 1.03698 3.40544C0.356262 4.52254 -0.00259316 5.80599 1.41067e-05 7.11415C-0.00036037 8.04427 0.183972 8.9652 0.542318 9.82351C0.900663 10.6818 1.42589 11.4604 2.08751 12.1142L8.60001 18.6267C9.30314 19.3289 10.2563 19.7234 11.25 19.7234C12.2438 19.7234 13.1969 19.3289 13.9 18.6267L16.25 16.2767C16.4828 16.0425 16.6135 15.7256 16.6135 15.3954C16.6135 15.0652 16.4828 14.7484 16.25 14.5142C16.0169 14.2889 15.7054 14.1629 15.3813 14.1629C15.0571 14.1629 14.7456 14.2889 14.5125 14.5142Z" fill="#A2A1FF"/>
</svg>
