<svg width="50" height="50" viewBox="0 0 50 50" fill="none" xmlns="http://www.w3.org/2000/svg">
<path d="M39.5834 29.1667C38.3472 29.1667 37.1388 28.8001 36.111 28.1133C35.0832 27.4266 34.2822 26.4505 33.8091 25.3084C33.3361 24.1664 33.2123 22.9097 33.4534 21.6973C33.6946 20.485 34.2899 19.3713 35.1639 18.4972C36.038 17.6232 37.1517 17.0279 38.364 16.7867C39.5764 16.5456 40.8331 16.6694 41.9751 17.1424C43.1172 17.6155 44.0933 18.4165 44.78 19.4443C45.4668 20.4721 45.8334 21.6805 45.8334 22.9167C45.8315 24.5737 45.1725 26.1624 44.0008 27.3341C42.8291 28.5058 41.2404 29.1648 39.5834 29.1667ZM16.6667 31.25C13.3526 31.2464 10.1753 29.9282 7.83185 27.5848C5.48843 25.2414 4.17031 22.0641 4.16669 18.75V6.24999C4.16669 5.69746 4.38618 5.16755 4.77688 4.77685C5.16758 4.38615 5.69749 4.16666 6.25002 4.16666H10.4167C10.9692 4.16666 11.4991 4.38615 11.8898 4.77685C12.2805 5.16755 12.5 5.69746 12.5 6.24999C12.5 6.80252 12.2805 7.33243 11.8898 7.72313C11.4991 8.11383 10.9692 8.33332 10.4167 8.33332H8.33335V18.75C8.33335 20.9601 9.21133 23.0797 10.7741 24.6425C12.3369 26.2053 14.4565 27.0833 16.6667 27.0833C18.8768 27.0833 20.9964 26.2053 22.5592 24.6425C24.122 23.0797 25 20.9601 25 18.75V8.33332H22.9167C22.3642 8.33332 21.8342 8.11383 21.4435 7.72313C21.0528 7.33243 20.8334 6.80252 20.8334 6.24999C20.8334 5.69746 21.0528 5.16755 21.4435 4.77685C21.8342 4.38615 22.3642 4.16666 22.9167 4.16666H27.0834C27.6359 4.16666 28.1658 4.38615 28.5565 4.77685C28.9472 5.16755 29.1667 5.69746 29.1667 6.24999V18.75C29.1631 22.0641 27.8449 25.2414 25.5015 27.5848C23.1581 29.9282 19.9808 31.2464 16.6667 31.25Z" fill="#998BF0"/>
<path d="M39.5833 29.1667C38.8719 29.1596 38.1671 29.0297 37.5 28.7827V32.2917C37.5 34.7781 36.5123 37.1626 34.7541 38.9208C32.996 40.679 30.6114 41.6667 28.125 41.6667C25.6386 41.6667 23.254 40.679 21.4959 38.9208C19.7377 37.1626 18.75 34.7781 18.75 32.2917V31.0618C17.3724 31.3127 15.9609 31.3127 14.5833 31.0618V32.2917C14.5833 35.8831 16.01 39.3275 18.5496 41.8671C21.0891 44.4066 24.5335 45.8333 28.125 45.8333C31.7165 45.8333 35.1608 44.4066 37.7004 41.8671C40.2399 39.3275 41.6666 35.8831 41.6666 32.2917V28.7828C40.9995 29.0298 40.2947 29.1596 39.5833 29.1667Z" fill="#7563E9"/>
</svg>
